# xmcd
#
# Track frame offsets:
#	150
#	11598
#	22263
#	34472
#	46483
#	59118
#	72116
#	84535
#	97398
#	108398
#	123224
#	133921
#	146826
#	160162
#	172762
#	184121
#	200987
#	214990
#	226345
#
# Disc length: 3231 seconds
#
# Revision: 6
# Processed by: cddbd v1.5.2PL0 Copyright (c) Steve Scherf et al.
# Submitted via: EZCDAudioConverter 1.3.4.1
#
DISCID=270c9d13
DTITLE=V/A - Wall Of Sound: The Very Best Of Phil Spector 1961-1966
DYEAR=2011
DGENRE=
TTITLE0=The Crystals - He's A Rebel
TTITLE1=The Crystals - Da Doo Ron Ron
TTITLE2=The Ronettes - Be My Baby
TTITLE3=The Crystals - Then He Kissed Me
TTITLE4=Darlene Love - (Today I Met) The Boy I'm Gonna Marry
TTITLE5=The Ronettes - Baby, I Love You
TTITLE6=The Crystals - He's Sure The Boy I Love
TTITLE7=Bob B. Soxx and The Blue Jeans - Zip-A-Dee-Doo-Dah
TTITLE8=Darlene Love - Wait Til' My Bobby Gets Home
TTITLE9=The Ronettes - Walking In The Rain
TTITLE10=The Crystals - Uptown
TTITLE11=Bob B. Soxx and The Blue Jeans - Why Do Lovers Break Each Others Hearts
TTITLE11=?
TTITLE12=The Ronettes - Do I Love You?
TTITLE13=Darlene Love - A Fine, Fine Boy
TTITLE14=The Crystals - There's No Other Like My Baby
TTITLE15=Righteous Brothers - You've Lost That Lovin' Feeling
TTITLE16=The Ronettes - (The Best Part Of) Breakin' Up
TTITLE17=Bob B. Soxx and The Blue Jeans - Not Too Young To Get Married
TTITLE18=Ike and Tina Turner - River Deep, Mountain High
EXTD=
EXTT0=
EXTT1=
EXTT2=
EXTT3=
EXTT4=
EXTT5=
EXTT6=
EXTT7=
EXTT8=
EXTT9=
EXTT10=
EXTT11=
EXTT12=
EXTT13=
EXTT14=
EXTT15=
EXTT16=
EXTT17=
EXTT18=
PLAYORDER=
